<?xml version="1.0" standalone="no"?>
<!DOCTYPE svg PUBLIC "-//W3C//DTD SVG 20010904//EN"
 "http://www.w3.org/TR/2001/REC-SVG-20010904/DTD/svg10.dtd">
<svg version="1.0" xmlns="http://www.w3.org/2000/svg"
 width="651.000000pt" height="383.000000pt" viewBox="0 0 651.000000 383.000000"
 preserveAspectRatio="xMidYMid meet">

<g transform="translate(0.000000,383.000000) scale(0.100000,-0.100000)"
fill="#000000" stroke="none">
<path d="M2302 2702 c-61 -54 -25 -162 54 -162 77 0 121 93 73 154 -16 21 -29
26 -63 26 -27 0 -51 -7 -64 -18z"/>
<path d="M3521 2385 c-24 -14 -65 -43 -92 -66 l-48 -40 -21 50 c-26 60 -63 81
-109 61 -50 -20 -58 -54 -72 -302 -14 -250 -10 -288 37 -322 32 -23 99 -31
136 -17 35 13 53 42 88 141 16 46 43 106 60 134 38 63 116 153 124 145 4 -3
15 -65 26 -137 26 -176 35 -207 69 -231 35 -25 102 -28 135 -6 41 27 51 69 50
210 -1 116 -4 137 -27 193 -58 141 -143 212 -254 212 -43 0 -69 -7 -102 -25z"/>
<path d="M2324 2382 c-14 -13 -27 -58 -47 -163 -16 -79 -35 -177 -43 -218 -29
-149 -16 -209 53 -237 30 -13 38 -13 68 2 66 31 80 92 100 445 9 153 -7 189
-84 189 -15 0 -36 -8 -47 -18z"/>
<path d="M2655 2168 c-46 -27 -58 -75 -30 -128 23 -45 67 -54 235 -47 141 6
146 7 168 32 27 32 29 84 3 114 -13 15 -38 25 -77 31 -82 14 -274 12 -299 -2z"/>
<path d="M1540 1736 c0 -11 30 -68 62 -116 147 -224 386 -394 696 -496 213
-70 551 -108 762 -85 130 14 310 51 411 84 174 57 373 173 493 286 46 44 176
208 176 224 0 14 -17 7 -46 -19 -153 -136 -351 -242 -550 -294 -191 -49 -299
-62 -560 -67 -233 -5 -264 -3 -430 21 -167 24 -280 47 -371 76 -117 37 -270
105 -339 152 -23 15 -46 28 -52 28 -6 0 -12 3 -14 8 -1 4 -28 26 -58 49 -30
23 -80 67 -110 97 -47 49 -70 66 -70 52z"/>
</g>
</svg>
